<svg width="41" height="41" viewBox="0 0 41 41" fill="none" xmlns="http://www.w3.org/2000/svg">
<path fill-rule="evenodd" clip-rule="evenodd" d="M29.6611 7.24999H28.2445C28.2445 5.69166 26.9695 4.41666 25.4111 4.41666H16.9111C15.3528 4.41666 14.0778 5.69166 14.0778 7.24999H12.6611C10.2528 7.24999 8.41113 9.09166 8.41113 11.5V31.3333C8.41113 33.7417 10.2528 35.5833 12.6611 35.5833H29.6611C32.0695 35.5833 33.9111 33.7417 33.9111 31.3333V11.5C33.9111 9.09166 32.0695 7.24999 29.6611 7.24999ZM16.9111 7.24999H25.4111V10.0833H16.9111V8.66666V7.24999ZM29.6611 32.75C30.5111 32.75 31.0778 32.1833 31.0778 31.3333V11.5C31.0778 10.65 30.5111 10.0833 29.6611 10.0833H28.2445C28.2445 11.6417 26.9695 12.9167 25.4111 12.9167H16.9111C15.3528 12.9167 14.0778 11.6417 14.0778 10.0833H12.6611C11.8111 10.0833 11.2445 10.65 11.2445 11.5V31.3333C11.2445 32.1833 11.8111 32.75 12.6611 32.75H29.6611Z" fill="black"/>
<mask id="mask0" mask-type="alpha" maskUnits="userSpaceOnUse" x="8" y="4" width="26" height="32">
<path fill-rule="evenodd" clip-rule="evenodd" d="M29.6611 7.24999H28.2445C28.2445 5.69166 26.9695 4.41666 25.4111 4.41666H16.9111C15.3528 4.41666 14.0778 5.69166 14.0778 7.24999H12.6611C10.2528 7.24999 8.41113 9.09166 8.41113 11.5V31.3333C8.41113 33.7417 10.2528 35.5833 12.6611 35.5833H29.6611C32.0695 35.5833 33.9111 33.7417 33.9111 31.3333V11.5C33.9111 9.09166 32.0695 7.24999 29.6611 7.24999ZM16.9111 7.24999H25.4111V10.0833H16.9111V8.66666V7.24999ZM29.6611 32.75C30.5111 32.75 31.0778 32.1833 31.0778 31.3333V11.5C31.0778 10.65 30.5111 10.0833 29.6611 10.0833H28.2445C28.2445 11.6417 26.9695 12.9167 25.4111 12.9167H16.9111C15.3528 12.9167 14.0778 11.6417 14.0778 10.0833H12.6611C11.8111 10.0833 11.2445 10.65 11.2445 11.5V31.3333C11.2445 32.1833 11.8111 32.75 12.6611 32.75H29.6611Z" fill="white"/>
</mask>
<g mask="url(#mask0)">
<rect x="4.16113" y="3" width="34" height="34" fill="#00918A"/>
</g>
</svg>
