<svg width="41" height="41" viewBox="0 0 41 41" fill="none" xmlns="http://www.w3.org/2000/svg">
<path fill-rule="evenodd" clip-rule="evenodd" d="M34.75 19.9999C34.75 20.7499 34.2499 21.2499 33.4997 21.2499H20.9962C20.2459 21.2499 19.7458 20.7499 19.7458 19.9999V7.49994C19.7458 6.74994 20.2459 6.24994 20.9962 6.24994C28.6233 6.24994 34.75 12.3749 34.75 19.9999ZM33.6247 25.3749C31.4991 30.6249 26.3727 33.7499 20.9962 33.7499C19.2457 33.7499 17.3701 33.3749 15.6197 32.6249C8.6177 29.6249 5.36679 21.6249 8.36763 14.6249C9.74301 11.3749 12.2437 8.74994 15.4946 7.37494C16.1198 7.12494 16.87 7.37494 17.1201 7.99994C17.3701 8.62494 17.1201 9.37494 16.4949 9.62494C13.8692 10.8749 11.7436 12.9999 10.6183 15.6249C8.2426 21.3749 10.8683 27.9999 16.6199 30.3749C22.3715 32.7499 28.9984 30.1249 31.3741 24.3749C31.6241 23.7499 32.3743 23.4999 32.9995 23.7499C33.6247 23.9999 33.8748 24.7499 33.6247 25.3749ZM22.2465 8.87493C27.3729 9.37493 31.4991 13.4999 32.1243 18.7499H22.2465V8.87493Z" fill="black"/>
<mask id="mask0" mask-type="alpha" maskUnits="userSpaceOnUse" x="7" y="6" width="28" height="28">
<path fill-rule="evenodd" clip-rule="evenodd" d="M34.75 19.9999C34.75 20.7499 34.2499 21.2499 33.4997 21.2499H20.9962C20.2459 21.2499 19.7458 20.7499 19.7458 19.9999V7.49994C19.7458 6.74994 20.2459 6.24994 20.9962 6.24994C28.6233 6.24994 34.75 12.3749 34.75 19.9999ZM33.6247 25.3749C31.4991 30.6249 26.3727 33.7499 20.9962 33.7499C19.2457 33.7499 17.3701 33.3749 15.6197 32.6249C8.6177 29.6249 5.36679 21.6249 8.36763 14.6249C9.74301 11.3749 12.2437 8.74994 15.4946 7.37494C16.1198 7.12494 16.87 7.37494 17.1201 7.99994C17.3701 8.62494 17.1201 9.37494 16.4949 9.62494C13.8692 10.8749 11.7436 12.9999 10.6183 15.6249C8.2426 21.3749 10.8683 27.9999 16.6199 30.3749C22.3715 32.7499 28.9984 30.1249 31.3741 24.3749C31.6241 23.7499 32.3743 23.4999 32.9995 23.7499C33.6247 23.9999 33.8748 24.7499 33.6247 25.3749ZM22.2465 8.87493C27.3729 9.37493 31.4991 13.4999 32.1243 18.7499H22.2465V8.87493Z" fill="white"/>
</mask>
<g mask="url(#mask0)">
<rect x="6" y="4.99994" width="30" height="30" fill="#00918A"/>
</g>
</svg>
