<svg width="33" height="33" viewBox="0 0 33 33" fill="none" xmlns="http://www.w3.org/2000/svg">
<path fill-rule="evenodd" clip-rule="evenodd" d="M19.9375 15.125H17.875V8.25H23.375C24.2 8.25 24.75 7.7 24.75 6.875C24.75 6.05 24.2 5.5 23.375 5.5H17.875V1.375C17.875 0.55 17.325 0 16.5 0C15.675 0 15.125 0.55 15.125 1.375V5.5H13.0625C9.625 5.5 6.875 8.25 6.875 11.6875C6.875 15.125 9.625 17.875 13.0625 17.875H15.125V24.75H8.25C7.425 24.75 6.875 25.3 6.875 26.125C6.875 26.95 7.425 27.5 8.25 27.5H15.125V31.625C15.125 32.45 15.675 33 16.5 33C17.325 33 17.875 32.45 17.875 31.625V27.5H19.9375C23.375 27.5 26.125 24.75 26.125 21.3125C26.125 17.875 23.375 15.125 19.9375 15.125ZM13.0625 15.125C11.1375 15.125 9.625 13.6125 9.625 11.6875C9.625 9.7625 11.1375 8.25 13.0625 8.25H15.125V15.125H13.0625ZM17.875 24.75H19.9375C21.8625 24.75 23.375 23.2375 23.375 21.3125C23.375 19.3875 21.8625 17.875 19.9375 17.875H17.875V24.75Z" fill="black"/>
<mask id="mask0" mask-type="alpha" maskUnits="userSpaceOnUse" x="6" y="0" width="21" height="33">
<path fill-rule="evenodd" clip-rule="evenodd" d="M19.9375 15.125H17.875V8.25H23.375C24.2 8.25 24.75 7.7 24.75 6.875C24.75 6.05 24.2 5.5 23.375 5.5H17.875V1.375C17.875 0.55 17.325 0 16.5 0C15.675 0 15.125 0.55 15.125 1.375V5.5H13.0625C9.625 5.5 6.875 8.25 6.875 11.6875C6.875 15.125 9.625 17.875 13.0625 17.875H15.125V24.75H8.25C7.425 24.75 6.875 25.3 6.875 26.125C6.875 26.95 7.425 27.5 8.25 27.5H15.125V31.625C15.125 32.45 15.675 33 16.5 33C17.325 33 17.875 32.45 17.875 31.625V27.5H19.9375C23.375 27.5 26.125 24.75 26.125 21.3125C26.125 17.875 23.375 15.125 19.9375 15.125ZM13.0625 15.125C11.1375 15.125 9.625 13.6125 9.625 11.6875C9.625 9.7625 11.1375 8.25 13.0625 8.25H15.125V15.125H13.0625ZM17.875 24.75H19.9375C21.8625 24.75 23.375 23.2375 23.375 21.3125C23.375 19.3875 21.8625 17.875 19.9375 17.875H17.875V24.75Z" fill="white"/>
</mask>
<g mask="url(#mask0)">
<rect width="33" height="33" fill="#00918A"/>
</g>
</svg>
