<svg width="41" height="41" viewBox="0 0 41 41" fill="none" xmlns="http://www.w3.org/2000/svg">
<path fill-rule="evenodd" clip-rule="evenodd" d="M33.75 21.2499H31.25V17.4999H33.75C34.5 17.4999 35 16.9999 35 16.2499C35 15.4999 34.5 14.9999 33.75 14.9999H31.25V12.4999C31.25 10.3749 29.625 8.74994 27.5 8.74994H25V6.24994C25 5.49994 24.5 4.99994 23.75 4.99994C23 4.99994 22.5 5.49994 22.5 6.24994V8.74994H17.5V6.24994C17.5 5.49994 17 4.99994 16.25 4.99994C15.5 4.99994 15 5.49994 15 6.24994V8.74994H12.5C10.375 8.74994 8.75 10.3749 8.75 12.4999V14.9999H6.25C5.5 14.9999 5 15.4999 5 16.2499C5 16.9999 5.5 17.4999 6.25 17.4999H8.75V21.2499H6.25C5.5 21.2499 5 21.7499 5 22.4999C5 23.2499 5.5 23.7499 6.25 23.7499H8.75V27.4999C8.75 29.6249 10.375 31.2499 12.5 31.2499H15V33.7499C15 34.4999 15.5 34.9999 16.25 34.9999C17 34.9999 17.5 34.4999 17.5 33.7499V31.2499H22.5V33.7499C22.5 34.4999 23 34.9999 23.75 34.9999C24.5 34.9999 25 34.4999 25 33.7499V31.2499H27.5C29.625 31.2499 31.25 29.6249 31.25 27.4999V23.7499H33.75C34.5 23.7499 35 23.2499 35 22.4999C35 21.7499 34.5 21.2499 33.75 21.2499ZM16.25 14.9999H23.75C24.5 14.9999 25 15.4999 25 16.2499V23.7499C25 24.4999 24.5 24.9999 23.75 24.9999H16.25C15.5 24.9999 15 24.4999 15 23.7499V16.2499C15 15.4999 15.5 14.9999 16.25 14.9999ZM17.5 22.4999H22.5V17.4999H17.5V22.4999ZM27.5 28.7499C28.25 28.7499 28.75 28.2499 28.75 27.4999V12.4999C28.75 11.7499 28.25 11.2499 27.5 11.2499H12.5C11.75 11.2499 11.25 11.7499 11.25 12.4999V27.4999C11.25 28.2499 11.75 28.7499 12.5 28.7499H27.5Z" fill="black"/>
<mask id="mask0" mask-type="alpha" maskUnits="userSpaceOnUse" x="5" y="5" width="30" height="30">
<path fill-rule="evenodd" clip-rule="evenodd" d="M33.75 21.2499H31.25V17.4999H33.75C34.5 17.4999 35 16.9999 35 16.2499C35 15.4999 34.5 14.9999 33.75 14.9999H31.25V12.4999C31.25 10.3749 29.625 8.74994 27.5 8.74994H25V6.24994C25 5.49994 24.5 4.99994 23.75 4.99994C23 4.99994 22.5 5.49994 22.5 6.24994V8.74994H17.5V6.24994C17.5 5.49994 17 4.99994 16.25 4.99994C15.5 4.99994 15 5.49994 15 6.24994V8.74994H12.5C10.375 8.74994 8.75 10.3749 8.75 12.4999V14.9999H6.25C5.5 14.9999 5 15.4999 5 16.2499C5 16.9999 5.5 17.4999 6.25 17.4999H8.75V21.2499H6.25C5.5 21.2499 5 21.7499 5 22.4999C5 23.2499 5.5 23.7499 6.25 23.7499H8.75V27.4999C8.75 29.6249 10.375 31.2499 12.5 31.2499H15V33.7499C15 34.4999 15.5 34.9999 16.25 34.9999C17 34.9999 17.5 34.4999 17.5 33.7499V31.2499H22.5V33.7499C22.5 34.4999 23 34.9999 23.75 34.9999C24.5 34.9999 25 34.4999 25 33.7499V31.2499H27.5C29.625 31.2499 31.25 29.6249 31.25 27.4999V23.7499H33.75C34.5 23.7499 35 23.2499 35 22.4999C35 21.7499 34.5 21.2499 33.75 21.2499ZM16.25 14.9999H23.75C24.5 14.9999 25 15.4999 25 16.2499V23.7499C25 24.4999 24.5 24.9999 23.75 24.9999H16.25C15.5 24.9999 15 24.4999 15 23.7499V16.2499C15 15.4999 15.5 14.9999 16.25 14.9999ZM17.5 22.4999H22.5V17.4999H17.5V22.4999ZM27.5 28.7499C28.25 28.7499 28.75 28.2499 28.75 27.4999V12.4999C28.75 11.7499 28.25 11.2499 27.5 11.2499H12.5C11.75 11.2499 11.25 11.7499 11.25 12.4999V27.4999C11.25 28.2499 11.75 28.7499 12.5 28.7499H27.5Z" fill="white"/>
</mask>
<g mask="url(#mask0)">
<rect x="5" y="4.99994" width="30" height="30" fill="#00918A"/>
</g>
</svg>
