<svg width="41" height="41" viewBox="0 0 41 41" fill="none" xmlns="http://www.w3.org/2000/svg">
<path fill-rule="evenodd" clip-rule="evenodd" d="M4.5 5H37.5C38.3284 5 39 5.67157 39 6.5V14C39 14.8284 38.3284 15.5 37.5 15.5H36V14C36 13.1716 35.3284 12.5 34.5 12.5H36V8H6V12.5H7.5C6.67157 12.5 6 13.1716 6 14V15.5H4.5C3.67157 15.5 3 14.8284 3 14V6.5C3 5.67157 3.67157 5 4.5 5ZM9 15.5H6V33.5C6 34.3284 6.67157 35 7.5 35H34.5C35.3284 35 36 34.3284 36 33.5V15.5H33V14C33 13.1716 33.6716 12.5 34.5 12.5H7.5C8.32843 12.5 9 13.1716 9 14V15.5ZM9 15.5H33V32H9V15.5ZM16.5 20C16.5 20.8284 17.1716 21.5 18 21.5H24C24.8284 21.5 25.5 20.8284 25.5 20C25.5 19.1716 24.8284 18.5 24 18.5H18C17.1716 18.5 16.5 19.1716 16.5 20Z" fill="black"/>
<mask id="mask0" mask-type="alpha" maskUnits="userSpaceOnUse" x="3" y="5" width="36" height="30">
<path fill-rule="evenodd" clip-rule="evenodd" d="M4.5 5H37.5C38.3284 5 39 5.67157 39 6.5V14C39 14.8284 38.3284 15.5 37.5 15.5H36V14C36 13.1716 35.3284 12.5 34.5 12.5H36V8H6V12.5H7.5C6.67157 12.5 6 13.1716 6 14V15.5H4.5C3.67157 15.5 3 14.8284 3 14V6.5C3 5.67157 3.67157 5 4.5 5ZM9 15.5H6V33.5C6 34.3284 6.67157 35 7.5 35H34.5C35.3284 35 36 34.3284 36 33.5V15.5H33V14C33 13.1716 33.6716 12.5 34.5 12.5H7.5C8.32843 12.5 9 13.1716 9 14V15.5ZM9 15.5H33V32H9V15.5ZM16.5 20C16.5 20.8284 17.1716 21.5 18 21.5H24C24.8284 21.5 25.5 20.8284 25.5 20C25.5 19.1716 24.8284 18.5 24 18.5H18C17.1716 18.5 16.5 19.1716 16.5 20Z" fill="white"/>
</mask>
<g mask="url(#mask0)">
<rect x="3" y="2" width="36" height="36" fill="#00918A"/>
</g>
</svg>
