<svg width="45" height="45" viewBox="0 0 45 45" fill="none" xmlns="http://www.w3.org/2000/svg">
<path fill-rule="evenodd" clip-rule="evenodd" d="M13.0887 16.5464C13.0887 13.3804 15.5861 10.8929 18.7647 10.8929C21.9432 10.8929 24.4407 13.3804 24.4407 16.5464C24.4407 19.7123 21.9432 22.1998 18.7647 22.1998C15.5861 22.1998 13.0887 19.7123 13.0887 16.5464ZM28.9815 30.1147V32.3761C28.9815 33.0545 28.5274 33.5068 27.8463 33.5068C27.1652 33.5068 26.7111 33.0545 26.7111 32.3761V30.1147C26.7111 28.1925 25.2353 26.7226 23.3055 26.7226H14.2239C12.294 26.7226 10.8183 28.1925 10.8183 30.1147V32.3761C10.8183 33.0545 10.3642 33.5068 9.68305 33.5068C9.00193 33.5068 8.54785 33.0545 8.54785 32.3761V30.1147C8.54785 26.9488 11.0453 24.4612 14.2239 24.4612H23.3055C26.4841 24.4612 28.9815 26.9488 28.9815 30.1147ZM18.7647 19.9385C16.8348 19.9385 15.3591 18.4685 15.3591 16.5464C15.3591 14.6242 16.8348 13.1543 18.7647 13.1543C20.6945 13.1543 22.1703 14.6242 22.1703 16.5464C22.1703 18.4685 20.6945 19.9385 18.7647 19.9385ZM31.479 24.6874C30.9114 24.5743 30.2302 24.9135 30.1167 25.4789C30.0032 26.0442 30.3437 26.7226 30.9114 26.8357C32.3871 27.1749 33.4088 28.5317 33.4088 30.1147V32.3761C33.4088 33.0545 33.8629 33.5068 34.544 33.5068C35.2251 33.5068 35.6792 33.0545 35.6792 32.3761V30.1147C35.7927 27.5141 34.0899 25.2527 31.479 24.6874ZM25.5759 11.9105C25.8029 11.2321 26.3705 10.8929 26.9381 11.119C30.0032 11.7974 31.8195 14.9634 31.0249 18.1293C30.5708 20.1646 28.9815 21.6345 26.9381 22.1998H26.7111C26.1435 22.1998 25.6894 21.8606 25.5759 21.2953C25.3489 20.7299 25.8029 20.0515 26.3705 19.9385C27.6193 19.5992 28.5274 18.6947 28.868 17.4509C29.3221 15.5287 28.1869 13.7196 26.3705 13.2673C25.8029 13.1543 25.4624 12.4759 25.5759 11.9105Z" fill="black"/>
<mask id="mask0" mask-type="alpha" maskUnits="userSpaceOnUse" x="8" y="10" width="28" height="24">
<path fill-rule="evenodd" clip-rule="evenodd" d="M13.0887 16.5464C13.0887 13.3804 15.5861 10.8929 18.7647 10.8929C21.9432 10.8929 24.4407 13.3804 24.4407 16.5464C24.4407 19.7123 21.9432 22.1998 18.7647 22.1998C15.5861 22.1998 13.0887 19.7123 13.0887 16.5464ZM28.9815 30.1147V32.3761C28.9815 33.0545 28.5274 33.5068 27.8463 33.5068C27.1652 33.5068 26.7111 33.0545 26.7111 32.3761V30.1147C26.7111 28.1925 25.2353 26.7226 23.3055 26.7226H14.2239C12.294 26.7226 10.8183 28.1925 10.8183 30.1147V32.3761C10.8183 33.0545 10.3642 33.5068 9.68305 33.5068C9.00193 33.5068 8.54785 33.0545 8.54785 32.3761V30.1147C8.54785 26.9488 11.0453 24.4612 14.2239 24.4612H23.3055C26.4841 24.4612 28.9815 26.9488 28.9815 30.1147ZM18.7647 19.9385C16.8348 19.9385 15.3591 18.4685 15.3591 16.5464C15.3591 14.6242 16.8348 13.1543 18.7647 13.1543C20.6945 13.1543 22.1703 14.6242 22.1703 16.5464C22.1703 18.4685 20.6945 19.9385 18.7647 19.9385ZM31.479 24.6874C30.9114 24.5743 30.2302 24.9135 30.1167 25.4789C30.0032 26.0442 30.3437 26.7226 30.9114 26.8357C32.3871 27.1749 33.4088 28.5317 33.4088 30.1147V32.3761C33.4088 33.0545 33.8629 33.5068 34.544 33.5068C35.2251 33.5068 35.6792 33.0545 35.6792 32.3761V30.1147C35.7927 27.5141 34.0899 25.2527 31.479 24.6874ZM25.5759 11.9105C25.8029 11.2321 26.3705 10.8929 26.9381 11.119C30.0032 11.7974 31.8195 14.9634 31.0249 18.1293C30.5708 20.1646 28.9815 21.6345 26.9381 22.1998H26.7111C26.1435 22.1998 25.6894 21.8606 25.5759 21.2953C25.3489 20.7299 25.8029 20.0515 26.3705 19.9385C27.6193 19.5992 28.5274 18.6947 28.868 17.4509C29.3221 15.5287 28.1869 13.7196 26.3705 13.2673C25.8029 13.1543 25.4624 12.4759 25.5759 11.9105Z" fill="white"/>
</mask>
<g mask="url(#mask0)">
<rect x="8.54785" y="8.63147" width="27.1367" height="27.1367" fill="#00918A"/>
</g>
</svg>
